<?xml version="1.0" standalone="no"?><svg xmlns="http://www.w3.org/2000/svg" viewBox="0 0 1440 320"><path fill="#fbb0eb" fill-opacity="1" d="M0,320L26.7,282.7C53.3,245,107,171,160,138.7C213.3,107,267,117,320,128C373.3,139,427,149,480,165.3C533.3,181,587,203,640,192C693.3,181,747,139,800,117.3C853.3,96,907,96,960,133.3C1013.3,171,1067,245,1120,277.3C1173.3,309,1227,299,1280,272C1333.3,245,1387,203,1413,181.3L1440,160L1440,320L1413.3,320C1386.7,320,1333,320,1280,320C1226.7,320,1173,320,1120,320C1066.7,320,1013,320,960,320C906.7,320,853,320,800,320C746.7,320,693,320,640,320C586.7,320,533,320,480,320C426.7,320,373,320,320,320C266.7,320,213,320,160,320C106.7,320,53,320,27,320L0,320Z"></path></svg>